<svg width="154" height="36" viewBox="0 0 154 36" fill="none" xmlns="http://www.w3.org/2000/svg">
<g clip-path="url(#clip0_2_14)">
<path fill-rule="evenodd" clip-rule="evenodd" d="M27.8333 19C27.8333 26.0877 22.0877 31.8333 15 31.8333C7.91234 31.8333 2.16666 26.0877 2.16666 19C2.16666 11.9123 7.91234 6.16666 15 6.16666C22.0877 6.16666 27.8333 11.9123 27.8333 19ZM30 19C30 27.2843 23.2843 34 15 34C6.71573 34 0 27.2843 0 19C0 10.7157 6.71573 4 15 4C23.2843 4 30 10.7157 30 19ZM23.2759 12.2759C23.2759 13.1329 22.5812 13.8276 21.7242 13.8276C20.8672 13.8276 20.1725 13.1329 20.1725 12.2759C20.1725 11.4189 20.8672 10.7242 21.7242 10.7242C22.5812 10.7242 23.2759 11.4189 23.2759 12.2759ZM10.4879 20.209C11.1556 22.7009 13.717 24.1797 16.2089 23.512C18.7008 22.8443 20.1796 20.2829 19.5119 17.791C18.8442 15.2991 16.2828 13.8203 13.7909 14.488C11.299 15.1557 9.82015 17.7171 10.4879 20.209ZM8.39503 20.7698C9.37244 24.4175 13.1219 26.5823 16.7696 25.6049C20.4174 24.6274 22.5821 20.878 21.6047 17.2302C20.6273 13.5825 16.8779 11.4177 13.2301 12.3952C9.58236 13.3726 7.41762 17.122 8.39503 20.7698Z" fill="url(#paint0_linear_2_14)"/>
<path d="M52.972 23.84C52.972 25.4267 52.216 26.7893 50.704 27.928C49.192 29.0667 47.4653 29.636 45.524 29.636C43.5827 29.636 42.0147 29.16 40.82 28.208C39.644 27.2373 39.056 26.2387 39.056 25.212C39.056 24.1853 39.3453 23.672 39.924 23.672C40.372 23.672 40.8387 23.896 41.324 24.344C41.8093 24.792 42.3507 25.24 42.948 25.688C43.564 26.136 44.2547 26.36 45.02 26.36C45.7853 26.36 46.6533 26.0427 47.624 25.408C48.5947 24.7733 49.08 24.2413 49.08 23.812C49.08 23.3827 48.548 22.664 47.484 21.656C46.4387 20.648 45.384 19.612 44.32 18.548C43.2747 17.4653 42.752 16.6347 42.752 16.056C42.752 15.4587 42.8547 14.8147 43.06 14.124C43.284 13.4333 43.5547 12.9573 43.872 12.696C44.88 11.7067 46.1773 10.8573 47.764 10.148C49.3693 9.42 50.7787 9.056 51.992 9.056C52.7013 9.056 53.2893 9.364 53.756 9.98C54.2227 10.5773 54.456 11.2027 54.456 11.856C54.456 12.1173 54.2413 12.332 53.812 12.5C53.4013 12.6493 52.7947 12.808 51.992 12.976C51.208 13.144 50.4053 13.3867 49.584 13.704C47.68 14.4133 46.728 15.0107 46.728 15.496C46.728 15.72 47.0547 16.1307 47.708 16.728C48.3613 17.3067 49.0707 17.9227 49.836 18.576C50.62 19.2107 51.3387 20.0227 51.992 21.012C52.6453 21.9827 52.972 22.9253 52.972 23.84ZM65.4532 15.216C66.4239 15.216 67.2732 15.6547 68.0012 16.532C68.7479 17.3907 69.1212 18.3147 69.1212 19.304C69.1212 20.8907 68.8599 22.552 68.3372 24.288C67.8332 26.0053 67.2732 27.3307 66.6572 28.264C66.0599 29.1973 65.4439 29.664 64.8092 29.664C64.1932 29.664 63.8852 29.2253 63.8852 28.348C63.8852 27.676 64.1932 26.3227 64.8092 24.288C65.2759 22.608 65.5092 21.404 65.5092 20.676C65.5092 19.948 65.4159 19.584 65.2292 19.584C64.9866 19.584 64.7439 19.7053 64.5012 19.948C64.2772 20.1907 64.0906 20.4053 63.9412 20.592C63.7919 20.7787 63.6146 21.0213 63.4092 21.32C63.2226 21.6 63.0546 21.8613 62.9052 22.104C62.7746 22.328 62.5972 22.6267 62.3732 23C62.1679 23.3547 61.9999 23.6533 61.8692 23.896C61.7386 24.12 61.5706 24.4187 61.3652 24.792C59.6292 28.04 58.2666 29.664 57.2772 29.664C56.8852 29.664 56.3906 29.328 55.7932 28.656C55.1959 27.9653 54.8972 27.4613 54.8972 27.144C54.8972 26.9387 55.0279 26.5 55.2892 25.828C55.5692 25.1373 55.7652 24.6147 55.8772 24.26C56.0079 23.8867 56.1106 23.4947 56.1852 23.084C56.2786 22.6733 56.3532 22.2347 56.4092 21.768C56.4652 21.2827 56.5026 20.9093 56.5212 20.648C56.5586 20.3867 56.5959 19.976 56.6332 19.416C56.8012 16.9893 56.9412 15.6453 57.0532 15.384C57.1839 15.1227 57.3239 14.992 57.4732 14.992C58.1826 14.992 58.8639 15.2907 59.5172 15.888C60.1706 16.4667 60.4972 16.9987 60.4972 17.484C60.4972 18.6413 60.1986 20.3027 59.6012 22.468C60.8146 20.34 61.9159 18.604 62.9052 17.26C63.9132 15.8973 64.7626 15.216 65.4532 15.216ZM82.5531 21.712C82.8891 22.0107 83.0571 22.2813 83.0571 22.524C83.0571 22.7667 82.9451 23.2707 82.7211 24.036C82.4971 24.8013 82.3478 25.3987 82.2731 25.828C82.1985 26.2387 82.1331 26.5653 82.0771 26.808C82.0398 27.0507 82.0118 27.2467 81.9931 27.396C81.9745 27.5267 81.9371 27.6947 81.8811 27.9C81.8438 28.1053 81.8065 28.2733 81.7691 28.404C81.7505 28.516 81.7131 28.656 81.6571 28.824C81.6198 28.9733 81.5731 29.0947 81.5171 29.188C81.4611 29.2627 81.3958 29.3467 81.3211 29.44C81.2091 29.5893 81.0225 29.664 80.7611 29.664C80.4998 29.664 80.1731 29.4027 79.7811 28.88C79.4078 28.3573 79.1278 27.7227 78.9411 26.976C77.1865 28.768 75.7118 29.664 74.5171 29.664C73.7145 29.664 72.8465 29.2253 71.9131 28.348C70.9798 27.452 70.5131 26.5653 70.5131 25.688C70.5131 24.792 70.9145 23.5227 71.7171 21.88C72.5198 20.2373 73.6118 18.716 74.9931 17.316C76.3931 15.916 77.7745 15.216 79.1371 15.216C79.9211 15.216 80.8265 15.6733 81.8531 16.588C82.8798 17.5027 83.3931 18.3427 83.3931 19.108C83.3931 19.8547 83.1131 20.7227 82.5531 21.712ZM74.4051 26.136C75.1518 26.136 76.1411 25.632 77.3731 24.624C78.6238 23.5973 79.3985 22.3093 79.6971 20.76C79.7158 20.536 79.8745 20.4053 80.1731 20.368C80.1171 19.304 79.9398 18.772 79.6411 18.772C78.8945 18.772 78.0545 19.2573 77.1211 20.228C76.2065 21.1987 75.4505 22.2347 74.8531 23.336C74.2745 24.4373 73.9851 25.2493 73.9851 25.772C73.9851 25.9213 74.0038 26.024 74.0411 26.08C74.0971 26.1173 74.2185 26.136 74.4051 26.136ZM95.0906 15.244C95.7812 15.244 96.5186 15.86 97.3026 17.092C98.1052 18.324 98.5066 19.556 98.5066 20.788C98.5066 21.5347 98.1892 22.4213 97.5546 23.448C96.9199 24.4747 96.1172 25.4453 95.1466 26.36C94.1946 27.256 93.0839 28.0213 91.8146 28.656C90.5639 29.2907 89.3692 29.608 88.2306 29.608H87.8946C86.7186 34.4987 85.8879 36.944 85.4026 36.944C85.0106 36.944 84.5999 36.6173 84.1706 35.964C83.7226 35.3107 83.4986 34.7693 83.4986 34.34C83.4986 33.9107 83.7692 32.5947 84.3106 30.392C85.9159 23.8587 86.7186 18.9307 86.7186 15.608C86.7186 15.048 86.9892 14.768 87.5306 14.768C87.9786 14.768 88.5479 15.02 89.2386 15.524C89.9292 16.028 90.3586 16.6813 90.5266 17.484C92.1132 15.9907 93.6346 15.244 95.0906 15.244ZM88.7626 26.276C90.2186 25.996 91.5906 25.1933 92.8786 23.868C94.1852 22.5427 94.8386 21.3947 94.8386 20.424C94.8386 19.4533 94.5679 18.968 94.0266 18.968C93.2426 18.968 92.4119 19.416 91.5346 20.312C91.1799 20.6853 90.7879 21.236 90.3586 21.964C89.9292 22.692 89.5559 23.5413 89.2386 24.512L88.7626 26.276ZM102.345 29.496C101.916 29.496 101.402 29.1413 100.805 28.432C100.208 27.704 99.909 27.116 99.909 26.668C99.909 26.22 100.133 25.296 100.581 23.896C101.962 19.6027 102.7 15.8413 102.793 12.612C102.158 11.94 101.841 11.408 101.841 11.016C101.841 10.4 102.569 9.82133 104.025 9.28C105.5 8.72 106.9 8.44 108.225 8.44C110.465 8.44 112.229 8.96267 113.517 10.008C114.824 11.0533 115.477 12.388 115.477 14.012C115.477 16.084 114.46 17.96 112.425 19.64C110.409 21.32 107.861 22.468 104.781 23.084C103.904 26.2387 103.325 28.096 103.045 28.656C102.784 29.216 102.55 29.496 102.345 29.496ZM111.501 14.096C111.501 13.4987 111.286 13.0133 110.857 12.64C110.428 12.248 109.849 12.052 109.121 12.052C108.393 12.052 107.385 12.3973 106.097 13.088C106.47 13.7413 106.657 14.3293 106.657 14.852C106.657 15.8787 106.386 17.4 105.845 19.416C107.525 18.744 108.888 17.9413 109.933 17.008C110.978 16.056 111.501 15.0853 111.501 14.096ZM127.26 21.712C127.596 22.0107 127.764 22.2813 127.764 22.524C127.764 22.7667 127.652 23.2707 127.428 24.036C127.204 24.8013 127.055 25.3987 126.98 25.828C126.905 26.2387 126.84 26.5653 126.784 26.808C126.747 27.0507 126.719 27.2467 126.7 27.396C126.681 27.5267 126.644 27.6947 126.588 27.9C126.551 28.1053 126.513 28.2733 126.476 28.404C126.457 28.516 126.42 28.656 126.364 28.824C126.327 28.9733 126.28 29.0947 126.224 29.188C126.168 29.2627 126.103 29.3467 126.028 29.44C125.916 29.5893 125.729 29.664 125.468 29.664C125.207 29.664 124.88 29.4027 124.488 28.88C124.115 28.3573 123.835 27.7227 123.648 26.976C121.893 28.768 120.419 29.664 119.224 29.664C118.421 29.664 117.553 29.2253 116.62 28.348C115.687 27.452 115.22 26.5653 115.22 25.688C115.22 24.792 115.621 23.5227 116.424 21.88C117.227 20.2373 118.319 18.716 119.7 17.316C121.1 15.916 122.481 15.216 123.844 15.216C124.628 15.216 125.533 15.6733 126.56 16.588C127.587 17.5027 128.1 18.3427 128.1 19.108C128.1 19.8547 127.82 20.7227 127.26 21.712ZM119.112 26.136C119.859 26.136 120.848 25.632 122.08 24.624C123.331 23.5973 124.105 22.3093 124.404 20.76C124.423 20.536 124.581 20.4053 124.88 20.368C124.824 19.304 124.647 18.772 124.348 18.772C123.601 18.772 122.761 19.2573 121.828 20.228C120.913 21.1987 120.157 22.2347 119.56 23.336C118.981 24.4373 118.692 25.2493 118.692 25.772C118.692 25.9213 118.711 26.024 118.748 26.08C118.804 26.1173 118.925 26.136 119.112 26.136ZM133.582 7.376C134.03 7.376 134.608 7.78667 135.318 8.608C136.027 9.42933 136.382 10.2133 136.382 10.96C136.382 11.7067 136.27 13.0413 136.046 14.964C135.822 16.868 135.588 18.3893 135.346 19.528C133.796 26.2853 132.714 29.664 132.098 29.664C131.687 29.664 131.174 29.3373 130.558 28.684C129.96 28.012 129.662 27.4613 129.662 27.032C129.662 26.9947 129.914 26.024 130.418 24.12C130.922 22.216 131.426 19.7707 131.93 16.784C132.452 13.7787 132.714 10.9133 132.714 8.188C132.714 7.64667 133.003 7.376 133.582 7.376ZM146.003 15.244C146.712 15.244 147.412 15.664 148.103 16.504C148.794 17.344 149.139 18.1 149.139 18.772C149.139 19.22 148.943 19.444 148.551 19.444C148.327 19.444 148 19.36 147.571 19.192C147.142 19.0053 146.703 18.912 146.255 18.912C145.826 18.912 145.182 19.0613 144.323 19.36C143.483 19.6587 143.063 20.0507 143.063 20.536C143.063 20.7227 143.315 20.9933 143.819 21.348C144.323 21.7027 144.874 22.0667 145.471 22.44C146.068 22.8133 146.619 23.336 147.123 24.008C147.627 24.6613 147.879 25.38 147.879 26.164C147.879 26.9293 147.31 27.704 146.171 28.488C145.051 29.272 143.726 29.664 142.195 29.664C140.683 29.664 139.386 29.3187 138.303 28.628C137.22 27.9373 136.679 27.228 136.679 26.5C136.679 25.772 136.978 25.408 137.575 25.408C137.818 25.408 138.107 25.5013 138.443 25.688C139.376 26.2293 140.534 26.5 141.915 26.5C143.315 26.5 144.015 26.3133 144.015 25.94C144.015 25.5667 143.744 25.156 143.203 24.708C142.68 24.2413 142.102 23.812 141.467 23.42C140.851 23.028 140.272 22.552 139.731 21.992C139.208 21.4133 138.947 20.8533 138.947 20.312C138.947 19.304 139.862 18.212 141.691 17.036C143.52 15.8413 144.958 15.244 146.003 15.244Z" fill="white"/>
</g>
<defs>
<linearGradient id="paint0_linear_2_14" x1="15" y1="4" x2="15" y2="34" gradientUnits="userSpaceOnUse">
<stop stop-color="#877EFF"/>
<stop offset="0.461458" stop-color="#685DFF"/>
<stop offset="1" stop-color="#3121FF"/>
</linearGradient>
<clipPath id="clip0_2_14">
<rect width="154" height="36" fill="white"/>
</clipPath>
</defs>
</svg>
